<svg xmlns="http://www.w3.org/2000/svg" xmlns:xlink="http://www.w3.org/1999/xlink" version="1.1" enable-background="new 0 0 100 100" xml:space="preserve" width="100" height="125"><rect id="backgroundrect" width="100%" height="100%" x="0" y="0" fill="none" stroke="none"/><g class="currentLayer" style=""><title>Layer 1</title><g id="svg_1" class="selected" fill-opacity="1" fill="#4e5e73"><g id="svg_2" fill="#4e5e73"><g id="svg_3" fill="#4e5e73"><polygon points="97.10298156738281,75.2327766418457 97.10298156738281,88.73867416381836 82.58728790283203,112.97356796264648 75.77123260498047,110.95399856567383 " id="svg_4" fill="#4e5e73"/></g><g id="svg_5" fill="#4e5e73"><polygon points="97.10298156738281,37.36577224731445 97.10298156738281,37.744441986083984 56.71149444580078,105.2739372253418 52.29368209838867,103.88547897338867 92.81138610839844,36.10353469848633 " id="svg_6" fill="#4e5e73"/></g><g id="svg_7" fill="#4e5e73"><polygon points="79.30548858642578,32.06439208984375 38.787784576416016,99.97256088256836 21.87384796142578,94.92363357543945 62.26533126831055,27.141677856445312 " id="svg_8" fill="#4e5e73"/></g><g id="svg_9" fill="#4e5e73"><polygon points="57.216392517089844,25.626998901367188 59.61463928222656,26.258113861083984 19.096933364868164,94.04007339477539 16.82491111755371,93.40895462036133 " id="svg_10" fill="#4e5e73"/></g><g id="svg_11" fill="#4e5e73"><polygon points="34.369964599609375,18.81093406677246 1.299438714981079,74.09677505493164 1.299438714981079,69.55273818969727 32.097938537597656,18.0535945892334 " id="svg_12" fill="#4e5e73"/></g></g><g id="svg_13" fill="#4e5e73"><g id="svg_14" fill="#4e5e73"><path d="M97.10297818545233,117.51761238536146 c-0.12622337209101123,0 -0.2524467441820225,0 -0.2524467441820225,-0.12622337209101123 c-0.12622337209101123,-0.12622337209101123 -0.12622337209101123,-0.3786701162730338 0.12622337209101123,-0.5048934883640448 l1.3884570930011226,-1.0097869767280891 V36.48220750293231 L2.940342605558035,8.334395526636834 l-1.3884570930011226,1.0097869767280891 c-0.12622337209101123,0.12622337209101123 -0.3786701162730338,0.12622337209101123 -0.5048934883640448,-0.12622337209101123 c-0.12622337209101123,-0.12622337209101123 -0.12622337209101123,-0.3786701162730338 0.12622337209101123,-0.5048934883640448 l1.514680465092134,-1.1360103488191002 c0.12622337209101123,-0.12622337209101123 0.2524467441820225,-0.12622337209101123 0.2524467441820225,0 l95.80353941707746,28.400258720477503 c0.12622337209101123,0 0.2524467441820225,0.12622337209101123 0.2524467441820225,0.3786701162730338 v79.77317116151903 c0,0.12622337209101123 0,0.2524467441820225 -0.12622337209101123,0.2524467441820225 l-1.514680465092134,1.1360103488191002 C97.22920155754333,117.51761238536146 97.10297818545233,117.51761238536146 97.10297818545233,117.51761238536146 z" id="svg_15" fill="#4e5e73"/></g><g id="svg_16" fill="#4e5e73"><path d="M52.29368109314339,104.26415831580529 c0,0 -0.12622337209101123,0 -0.12622337209101123,0 c-0.12622337209101123,-0.12622337209101123 -0.2524467441820225,-0.3786701162730338 -0.12622337209101123,-0.5048934883640448 l40.517702441214574,-67.78195081287298 c0.12622337209101123,-0.12622337209101123 0.3786701162730338,-0.2524467441820225 0.5048934883640448,-0.12622337209101123 c0.12622337209101123,0.12622337209101123 0.2524467441820225,0.3786701162730338 0.12622337209101123,0.5048934883640448 L52.546127837325415,104.13793494371428 C52.546127837325415,104.26415831580529 52.419904465234396,104.26415831580529 52.29368109314339,104.26415831580529 z" id="svg_17" fill="#4e5e73"/></g><g id="svg_18" fill="#4e5e73"><path d="M56.71149911632878,105.65261540880643 c0,0 -0.12622337209101123,0 -0.12622337209101123,0 c-0.12622337209101123,-0.12622337209101123 -0.2524467441820225,-0.3786701162730338 -0.12622337209101123,-0.5048934883640448 l40.26525569703255,-67.52950406869095 c0.12622337209101123,-0.12622337209101123 0.3786701162730338,-0.2524467441820225 0.5048934883640448,-0.12622337209101123 c0.12622337209101123,0.12622337209101123 0.2524467441820225,0.3786701162730338 0.12622337209101123,0.5048934883640448 L57.09016923260181,105.40016866462439 C56.963945860510805,105.5263920367154 56.837722488419786,105.65261540880643 56.71149911632878,105.65261540880643 z" id="svg_19" fill="#4e5e73"/></g><g id="svg_20" fill="#4e5e73"><path d="M82.58729039498606,113.22601773426709 c0,0 -0.12622337209101123,0 -0.12622337209101123,0 c-0.12622337209101123,-0.12622337209101123 -0.2524467441820225,-0.3786701162730338 -0.12622337209101123,-0.5048934883640448 l14.51568779046628,-24.234887441474136 c0.12622337209101123,-0.12622337209101123 0.3786701162730338,-0.2524467441820225 0.5048934883640448,-0.12622337209101123 c0.12622337209101123,0.12622337209101123 0.2524467441820225,0.3786701162730338 0.12622337209101123,0.5048934883640448 L82.9659605112591,113.09979436217607 C82.83973713916808,113.22601773426709 82.71351376707706,113.22601773426709 82.58729039498606,113.22601773426709 z" id="svg_21" fill="#4e5e73"/></g><g id="svg_22" fill="#4e5e73"><path d="M75.77122830207145,111.2064437808109 c0,0 -0.12622337209101123,0 -0.12622337209101123,0 c-0.12622337209101123,-0.12622337209101123 -0.2524467441820225,-0.3786701162730338 -0.12622337209101123,-0.5048934883640448 l21.331749883380876,-35.59499092966514 c0.12622337209101123,-0.12622337209101123 0.3786701162730338,-0.2524467441820225 0.5048934883640448,-0.12622337209101123 c0.12622337209101123,0.12622337209101123 0.2524467441820225,0.3786701162730338 0.12622337209101123,0.5048934883640448 L76.14989841834449,111.08022040871988 C76.02367504625349,111.2064437808109 75.89745167416247,111.2064437808109 75.77122830207145,111.2064437808109 z" id="svg_23" fill="#4e5e73"/></g><g id="svg_24" fill="#4e5e73"><path d="M38.7877802794052,100.22501040889294 c0,0 -0.12622337209101123,0 -0.12622337209101123,0 c-0.12622337209101123,-0.12622337209101123 -0.2524467441820225,-0.3786701162730338 -0.12622337209101123,-0.5048934883640448 l40.517702441214574,-67.78195081287298 c0.12622337209101123,-0.12622337209101123 0.3786701162730338,-0.2524467441820225 0.5048934883640448,-0.12622337209101123 c0.12622337209101123,0.12622337209101123 0.2524467441820225,0.3786701162730338 0.12622337209101123,0.5048934883640448 L39.040227023587214,100.09878703680192 C39.040227023587214,100.22501040889294 38.9140036514962,100.22501040889294 38.7877802794052,100.22501040889294 z" id="svg_25" fill="#4e5e73"/></g><g id="svg_26" fill="#4e5e73"><path d="M21.873848419209708,95.3022988973435 c0,0 -0.12622337209101123,0 -0.12622337209101123,0 c-0.12622337209101123,-0.12622337209101123 -0.2524467441820225,-0.3786701162730338 -0.12622337209101123,-0.5048934883640448 l40.517702441214574,-67.78195081287298 c0.12622337209101123,-0.12622337209101123 0.3786701162730338,-0.2524467441820225 0.5048934883640448,-0.12622337209101123 c0.12622337209101123,0.12622337209101123 0.2524467441820225,0.3786701162730338 0.12622337209101123,0.5048934883640448 L22.126295163391724,95.04985215316147 C22.126295163391724,95.1760755252525 22.000071791300712,95.3022988973435 21.873848419209708,95.3022988973435 z" id="svg_27" fill="#4e5e73"/></g><g id="svg_28" fill="#4e5e73"><path d="M16.82491353556926,93.78761843225136 c0,0 -0.12622337209101123,0 -0.12622337209101123,0 c-0.12622337209101123,-0.12622337209101123 -0.2524467441820225,-0.3786701162730338 -0.12622337209101123,-0.5048934883640448 l40.517702441214574,-67.78195081287298 c0.12622337209101123,-0.12622337209101123 0.3786701162730338,-0.2524467441820225 0.5048934883640448,-0.12622337209101123 c0.12622337209101123,0.12622337209101123 0.2524467441820225,0.3786701162730338 0.12622337209101123,0.5048934883640448 L17.07736027975128,93.53517168806934 C16.95113690766027,93.66139506016034 16.82491353556926,93.78761843225136 16.82491353556926,93.78761843225136 z" id="svg_29" fill="#4e5e73"/></g><g id="svg_30" fill="#4e5e73"><path d="M19.096934233207463,94.41873529270642 c0,0 -0.12622337209101123,0 -0.12622337209101123,0 c-0.12622337209101123,-0.12622337209101123 -0.2524467441820225,-0.3786701162730338 -0.12622337209101123,-0.5048934883640448 l40.517702441214574,-67.78195081287298 c0.12622337209101123,-0.12622337209101123 0.3786701162730338,-0.2524467441820225 0.5048934883640448,-0.12622337209101123 c0.12622337209101123,0.12622337209101123 0.2524467441820225,0.3786701162730338 0.12622337209101123,0.5048934883640448 L19.34938097738948,94.29251192061541 C19.34938097738948,94.41873529270642 19.22315760529847,94.41873529270642 19.096934233207463,94.41873529270642 z" id="svg_31" fill="#4e5e73"/></g><g id="svg_32" fill="#4e5e73"><path d="M1.2994387683748896,74.47544250232667 c0,0 -0.12622337209101123,0 -0.12622337209101123,0 c-0.12622337209101123,-0.12622337209101123 -0.2524467441820225,-0.3786701162730338 -0.12622337209101123,-0.5048934883640448 l33.070523487844916,-55.28583697586287 c0.12622337209101123,-0.12622337209101123 0.3786701162730338,-0.2524467441820225 0.5048934883640448,-0.12622337209101123 c0.12622337209101123,0.12622337209101123 0.2524467441820225,0.3786701162730338 0.12622337209101123,0.5048934883640448 L1.5518855125569124,74.34921913023567 C1.5518855125569124,74.47544250232667 1.4256621404659031,74.47544250232667 1.2994387683748896,74.47544250232667 z" id="svg_33" fill="#4e5e73"/></g><g id="svg_34" fill="#4e5e73"><path d="M97.10297818545233,117.51761238536146 C96.97675481336134,117.51761238536146 96.97675481336134,117.51761238536146 97.10297818545233,117.51761238536146 L1.1732153962838798,89.11735366488395 c-0.12622337209101123,0 -0.2524467441820225,-0.12622337209101123 -0.2524467441820225,-0.3786701162730338 V8.965512387091888 c0,-0.12622337209101123 0,-0.2524467441820225 0.12622337209101123,-0.2524467441820225 c0.12622337209101123,-0.12622337209101123 0.2524467441820225,-0.12622337209101123 0.3786701162730338,0 l95.80353941707746,28.400258720477503 c0.12622337209101123,0 0.2524467441820225,0.12622337209101123 0.2524467441820225,0.3786701162730338 v79.77317116151903 c0,0.12622337209101123 0,0.2524467441820225 -0.12622337209101123,0.2524467441820225 C97.22920155754333,117.51761238536146 97.10297818545233,117.51761238536146 97.10297818545233,117.51761238536146 zM1.6781088846479237,88.6124601765199 l95.04619918453137,28.147811976295483 V37.61821785175142 l-39.63413883657749,-11.738773604464036 l-55.538283720044895,-16.409038371831446 V88.6124601765199 z" id="svg_35" fill="#4e5e73"/></g><g id="svg_36" fill="#4e5e73"><path d="M1.2994387683748896,69.93140110705028 c0,0 -0.12622337209101123,0 -0.12622337209101123,0 c-0.12622337209101123,-0.12622337209101123 -0.2524467441820225,-0.3786701162730338 -0.12622337209101123,-0.5048934883640448 l30.798502790206715,-51.49913581313253 c0.12622337209101123,-0.12622337209101123 0.3786701162730338,-0.2524467441820225 0.5048934883640448,-0.12622337209101123 c0.12622337209101123,0.12622337209101123 0.2524467441820225,0.3786701162730338 0.12622337209101123,0.5048934883640448 L1.5518855125569124,69.80517773495924 C1.5518855125569124,69.93140110705028 1.4256621404659031,69.93140110705028 1.2994387683748896,69.93140110705028 z" id="svg_37" fill="#4e5e73"/></g><g id="svg_38" fill="#4e5e73"><path d="M97.10297818545233,37.74444122384242 c-0.12622337209101123,0 -0.2524467441820225,0 -0.2524467441820225,-0.12622337209101123 c-0.12622337209101123,-0.12622337209101123 -0.12622337209101123,-0.3786701162730338 0.12622337209101123,-0.5048934883640448 l1.514680465092134,-1.1360103488191002 c0.12622337209101123,-0.12622337209101123 0.3786701162730338,-0.12622337209101123 0.5048934883640448,0.12622337209101123 c0.12622337209101123,0.12622337209101123 0.12622337209101123,0.3786701162730338 -0.12622337209101123,0.5048934883640448 l-1.514680465092134,1.1360103488191002 C97.22920155754333,37.74444122384242 97.10297818545233,37.74444122384242 97.10297818545233,37.74444122384242 z" id="svg_39" fill="#4e5e73"/></g></g></g></g></svg>