<svg xmlns="http://www.w3.org/2000/svg" xmlns:xlink="http://www.w3.org/1999/xlink" version="1.1" enable-background="new 0 0 1000 1000" xml:space="preserve" width="1000" height="1000" style=""><rect id="backgroundrect" width="100%" height="100%" x="0" y="0" fill="none" stroke="none"/>
<g class="currentLayer" style=""><title>Layer 1</title><g id="svg_1" class="" fill="#4e5e73" fill-opacity="1"><g transform="translate(0,511) scale(0.10000000149011612,-0.10000000149011612) " id="svg_2" fill="#4e5e73" fill-opacity="1"><path d="M3404.1976669311525,4962.311150360108 c-83.8,-73.8 -73.8,-147.7 45.9,-319.3 c325.2,-466.9 303.3,-704.4 -115.7,-1291 c-151.7,-213.5 -219.5,-349.2 -267.4,-528.8 c-37.9,-151.6 -37.9,-407.1 0,-556.7 c85.8,-329.2 399.1,-730.3 568.7,-730.3 c71.8,0 157.6,57.9 173.6,115.7 c23.9,89.8 6,127.7 -117.7,261.4 c-167.6,179.6 -259.4,375.1 -271.4,580.7 c-14,245.4 33.9,371.1 283.3,744.3 c127.7,191.6 233.5,377.1 273.4,476.9 c61.9,153.6 65.8,183.6 67.8,395.1 c0,219.5 -4,235.4 -65.8,367.1 c-77.8,165.6 -273.4,460.9 -331.2,502.8 C3583.797666931152,5024.211150360107 3466.097666931152,5016.211150360107 3404.1976669311525,4962.311150360108 z" id="svg_3" fill="#4e5e73" fill-opacity="1"/><path d="M4850.897666931152,4950.411150360107 c-31.9,-31.9 -57.9,-79.8 -57.9,-103.8 c0,-23.9 61.9,-137.7 139.7,-249.4 c139.7,-207.5 199.5,-355.2 199.5,-484.9 c0,-181.6 -115.7,-441 -325.2,-730.3 c-243.4,-339.2 -321.3,-548.7 -319.3,-848 c2,-313.3 121.7,-590.6 363.2,-842.1 c109.7,-115.7 143.7,-139.7 211.5,-149.6 c67.9,-8 91.8,-2 145.7,43.9 c103.8,87.8 91.8,159.6 -59.9,325.2 c-153.6,167.6 -229.5,301.3 -265.4,470.9 c-53.9,265.4 16,494.9 257.4,832.1 c157.6,217.5 299.3,496.8 343.2,676.4 c43.9,175.6 29.9,389.1 -39.9,554.7 c-53.9,137.7 -251.4,445 -329.2,518.8 C5042.397666931152,5030.211150360107 4926.6976669311525,5024.211150360107 4850.897666931152,4950.411150360107 z" id="svg_4" fill="#4e5e73" fill-opacity="1"/><path d="M6301.497666931153,4958.311150360108 c-79.8,-73.8 -67.8,-139.7 55.9,-321.3 c137.7,-205.5 187.6,-305.3 211.5,-427 c39.9,-207.5 -63.8,-488.9 -303.3,-818.1 c-171.6,-239.4 -249.4,-387.1 -295.3,-568.7 c-91.8,-361.2 -10,-714.3 247.4,-1041.6 c191.5,-245.4 335.2,-303.3 452.9,-187.6 c83.8,85.8 71.8,183.6 -35.9,267.4 c-71.8,57.9 -217.5,273.4 -265.4,391.1 c-59.9,153.6 -71.8,323.3 -31.9,476.9 c39.9,157.6 89.8,255.4 231.5,452.9 c397.1,548.7 482.9,929.8 299.3,1320.9 c-69.8,151.6 -247.4,413 -315.3,466.9 C6483.097666931153,5024.211150360107 6369.397666931152,5020.211150360107 6301.497666931153,4958.311150360108 z" id="svg_5" fill="#4e5e73" fill-opacity="1"/><path d="M1726.0976669311522,556.6111503601074 c-103.8,-51.9 -217.5,-173.6 -269.4,-293.3 c-23.9,-51.9 -49.9,-177.6 -61.8,-295.3 l-21.9,-207.5 H985.8976669311523 c-423,0 -464.9,-10 -530.8,-119.7 c-45.9,-77.8 -41.9,-271.4 6,-351.2 c67.8,-111.7 133.7,-127.7 548.7,-127.7 H1380.8976669311523 v-1620.2 c0,-903.9 10,-1686.1 20,-1767.9 c23.9,-179.6 79.8,-309.3 175.6,-411.1 c113.7,-119.7 201.5,-151.6 419,-151.6 c261.4,0 375.1,55.9 492.9,241.4 c111.7,173.6 109.7,139.7 109.7,1997.4 v1712 h149.7 h147.7 l6,-1740 l6,-1742 l45.9,-111.7 c55.9,-141.7 159.6,-263.4 269.4,-315.3 c69.8,-33.9 123.7,-41.9 285.3,-41.9 c183.6,0 205.5,4 301.3,59.9 c113.7,65.8 199.5,175.6 257.4,329.2 c35.9,93.8 37.9,195.5 43.9,1831.7 l6,1730 h147.6 H4413.897666931152 l4,-1759.9 c6,-1751.9 6,-1761.9 47.9,-1853.7 c57.9,-123.7 179.6,-255.4 277.4,-299.3 c111.7,-51.9 427,-51.9 538.7,0 c121.7,53.9 241.5,203.5 289.3,357.2 c37.9,123.7 39.9,185.6 39.9,1841.7 v1714 h149.6 h147.7 l6,-1740 l6,-1742 l45.9,-111.7 c55.9,-141.7 159.6,-263.4 269.4,-315.3 c69.8,-33.9 123.7,-41.9 285.3,-41.9 c183.6,0 205.5,4 303.3,59.9 c69.8,41.9 125.7,95.8 173.6,165.6 c131.7,201.5 129.7,157.6 129.7,2033.3 v1692.1 h149.7 H7426.897666931152 l4,-1759.9 l6,-1761.9 l43.9,-93.8 c57.9,-123.7 177.6,-253.4 275.4,-297.3 c111.7,-51.9 427,-51.9 538.8,0 c97.8,43.9 217.5,173.6 275.4,297.3 l43.9,93.8 l6,1761.9 l4,1759.9 h365.1 c397.1,0 458.9,14 538.8,121.7 c83.8,115.7 55.9,345.2 -51.9,425 c-51.9,37.9 -89.8,41.9 -449,51.9 l-393.1,10 l-10,179.6 c-14,225.5 -59.9,361.2 -161.6,474.9 c-117.7,135.7 -213.5,173.6 -433,173.6 c-201.5,0 -275.4,-21.9 -379.1,-109.7 C7506.697666931152,369.0111503601074 7446.897666931152,223.4111503601074 7428.897666931152,-39.98884963989258 l-12,-189.6 l-143.7,-6 l-145.7,-6 v117.7 c0,245.4 -65.8,441 -193.6,572.7 c-111.7,115.7 -205.5,149.6 -417,149.6 c-161.6,0 -195.6,-6 -289.3,-55.9 c-197.5,-101.8 -317.3,-349.2 -317.3,-648.5 v-135.7 l-143.7,6 l-145.7,6 l-12,189.6 c-18,305.3 -141.7,520.8 -349.2,608.6 c-93.8,39.9 -403.1,39.9 -494.9,2 c-105.8,-43.9 -225.5,-165.6 -283.3,-287.3 C4437.797666931152,191.4111503601074 4423.897666931152,129.61115036010733 4415.897666931152,-29.988849639892578 l-12,-199.5 l-143.7,-6 l-145.7,-6 v107.8 c0,333.2 -131.7,596.6 -349.2,694.4 c-57.9,27.9 -129.7,37.9 -261.4,37.9 c-161.6,0 -195.5,-6 -289.3,-55.9 c-197.5,-101.8 -317.3,-349.2 -317.3,-648.5 v-135.7 l-143.7,6 l-145.7,6 l-12,189.6 c-16,297.3 -127.7,498.8 -327.2,590.6 C2131.1976669311525,616.4111503601074 1851.7976669311524,618.4111503601074 1726.0976669311522,556.6111503601074 z" id="svg_6" fill="#4e5e73" fill-opacity="1"/></g></g></g></svg>