<svg xmlns="http://www.w3.org/2000/svg" version="1.0" width="5120" height="5120" preserveAspectRatio="xMidYMid meet"><rect id="backgroundrect" width="100%" height="100%" x="0" y="0" fill="none" stroke="none"/>


<g class="currentLayer" style=""><title>Layer 1</title><g id="layer101" fill="#4e5e73" stroke="none" class="" fill-opacity="1">
 <path d="M1478 5100 c-113 -34 -167 -177 -109 -288 12 -24 154 -272 315 -550 161 -279 299 -518 306 -531 l13 -24 -39 22 c-22 13 -153 89 -291 169 -272 156 -307 169 -387 142 -144 -47 -183 -245 -69 -341 16 -13 154 -96 306 -184 l277 -160 -838 -5 -838 -5 -36 -24 c-50 -35 -80 -84 -86 -141 -7 -71 5 -116 40 -156 65 -74 0 -68 924 -74 l831 -5 -590 -340 c-350 -201 -606 -355 -628 -377 -94 -92 -68 -256 51 -315 49 -25 109 -29 160 -12 18 7 285 158 594 336 601 348 621 359 613 346 -2 -4 -73 -126 -156 -271 -84 -145 -159 -278 -167 -297 -28 -67 -11 -159 39 -214 51 -56 151 -76 224 -46 48 20 69 40 105 94 l28 45 0 457 0 457 -38 74 c-172 336 5 735 373 844 81 24 229 24 310 0 205 -61 362 -218 421 -421 21 -72 22 -206 4 -289 -8 -33 -31 -93 -52 -134 l-38 -74 0 -456 0 -457 176 -305 c97 -168 188 -318 202 -334 35 -37 97 -66 145 -66 72 0 149 48 185 115 23 45 20 131 -8 185 -16 32 -484 847 -628 1094 -3 5 -1 7 4 4 5 -3 135 -78 290 -166 205 -119 292 -164 325 -168 192 -26 305 196 171 338 -14 15 -152 101 -308 190 l-282 163 832 5 c924 6 859 0 924 74 35 40 47 85 40 156 -6 57 -36 106 -86 141 l-36 24 -838 5 -838 5 596 344 c351 203 610 358 630 379 45 46 62 121 44 188 -27 96 -103 149 -204 142 -60 -4 -76 -12 -631 -333 -314 -181 -585 -338 -604 -349 -19 -11 -32 -16 -29 -11 281 486 331 580 336 625 11 121 -77 220 -197 220 -114 0 -135 -23 -332 -364 l-164 -284 -5 442 -5 442 -28 42 c-76 115 -258 115 -334 0 l-28 -42 -5 -442 -5 -442 -320 555 c-176 306 -333 569 -350 586 -51 52 -130 70 -207 47z" id="svg_1" fill="#4e5e73"/>
 <path d="M2480 3441 c-96 -31 -165 -96 -199 -185 -37 -99 -21 -206 44 -291 l35 -45 0 -1460 0 -1460 200 0 200 0 0 1460 0 1460 35 45 c65 85 81 192 44 291 -43 115 -140 185 -264 190 -38 2 -81 0 -95 -5z" id="svg_2" fill="#4e5e73"/>
 </g></g></svg>