<!DOCTYPE svg PUBLIC "-//W3C//DTD SVG 20010904//EN" "http://www.w3.org/TR/2001/REC-SVG-20010904/DTD/svg10.dtd">
<svg version="1.0" xmlns="http://www.w3.org/2000/svg" width="128px" height="128px" viewBox="0 0 1280 1280" preserveAspectRatio="xMidYMid meet">
<g id="layer101" fill="#4e5e73" stroke="none">
 <path d="M30 877 l0 -134 115 -56 115 -56 0 -88 0 -88 223 -88 222 -88 183 1 182 0 0 115 0 115 90 0 91 0 -3 122 -3 122 -150 128 -150 127 -457 0 -458 1 0 -133z m110 96 c0 -16 -35 -43 -57 -43 -18 0 -23 5 -23 25 0 23 4 25 40 25 22 0 40 -3 40 -7z m90 0 c0 -4 -9 -26 -21 -50 -34 -70 -149 -116 -149 -59 0 19 7 25 33 30 34 6 69 36 80 69 6 16 57 26 57 10z m120 -14 c0 -42 -24 -100 -57 -139 l-35 -40 -99 0 c-102 0 -131 12 -56 24 79 13 157 90 157 156 0 17 6 20 45 20 39 0 45 -3 45 -21z m80 -79 l0 -100 -55 0 c-30 0 -55 2 -55 6 0 3 11 22 25 42 14 20 31 63 37 95 9 44 16 57 30 57 16 0 18 -10 18 -100z m170 91 c0 -16 -31 -41 -51 -41 -14 0 -19 7 -19 25 0 22 4 25 35 25 19 0 35 -4 35 -9z m85 -18 c-15 -61 -73 -113 -127 -113 -23 0 -28 4 -28 25 0 16 6 25 15 25 31 0 73 30 83 60 9 23 17 30 38 30 24 0 26 -3 19 -27z m135 19 c0 -29 -35 -115 -60 -150 l-30 -42 -100 0 c-60 0 -100 4 -100 10 0 6 10 10 23 10 67 1 148 69 167 140 11 39 12 40 55 40 25 0 45 -4 45 -8z m80 -92 l0 -100 -60 0 c-33 0 -60 2 -60 5 0 2 11 21 25 41 26 38 45 93 45 132 0 17 6 22 25 22 l25 0 0 -100z m-542 -212 c-9 -13 -25 -24 -37 -26 -17 -3 -21 2 -21 22 0 23 4 26 36 26 36 0 36 -1 22 -22z m97 0 c-16 -55 -86 -118 -131 -118 -18 0 -24 5 -24 23 0 19 9 28 41 40 29 11 44 25 52 46 9 25 17 31 40 31 25 0 28 -3 22 -22z m125 1 c0 -42 -24 -100 -57 -139 l-35 -40 -94 0 c-91 0 -126 13 -66 25 83 17 161 91 162 153 0 19 5 22 45 22 39 0 45 -3 45 -21z m90 -79 l0 -100 -61 0 c-33 0 -59 3 -57 8 2 4 15 30 30 59 15 28 30 70 34 92 6 35 10 41 30 41 24 0 24 -1 24 -100z"/>
 </g>

</svg>