<svg xmlns="http://www.w3.org/2000/svg" width="24" height="24" fill="none" style=""><rect id="backgroundrect" width="100%" height="100%" x="0" y="0" fill="none" stroke="none"/>

<g class="currentLayer" style=""><title>Layer 1</title><path d="M17.554443189434426,0.17109680103787694 C14.157171721601523,0.17109680103787694 11.403149791909769,2.92513044747896 11.403149791909769,6.3223901985625375 C11.403149791909769,6.970150685195203 11.503562333656028,7.595754798847457 11.690092982967633,8.183724713656183 L1.0660008297388726,19.174141034644197 C-0.05864307131789368,20.337614242976006 0.06138330880447346,22.216277830326682 1.324940989901338,23.227081794906592 C2.4315059467440454,24.112399374176995 4.029951757151482,24.010229320031446 5.014861705715145,22.99134079841479 L15.516314643721259,12.127805155906382 C16.154994649624243,12.351946570562852 16.84124465780143,12.473683596087197 17.554443189434426,12.473683596087197 C20.951714657267328,12.473683596087197 23.705736586959084,9.71966166639544 23.705736586959084,6.3223901985625375 C23.705736586959084,5.733436076810204 23.62278200171247,5.1623851480319995 23.467183570628414,4.621036178801845 C23.38129979804964,4.322001302436846 23.143684121665263,4.0906892371912615 22.842446496426486,4.012866588150577 C22.5412088711877,3.935032222360566 22.221224447023133,4.022310288109445 22.00130106212497,4.242303973503583 L18.270570908399584,7.972987260231653 L15.85610037425119,5.558563593080574 L19.55988200452075,1.8547702460616844 C19.781562901818212,1.6331244990122096 19.868384014343277,1.3101991707661582 19.787772778962378,1.007297767122715 C19.707044376088202,0.7043963634792726 19.47118621210311,0.4673899580599793 19.168659744438187,0.3853024122636786 C18.65323994147226,0.24546300902661813 18.11192612249009,0.17109680103787694 17.554443189434426,0.17109680103787694 z" fill="#4e5e73" id="svg_1" class="selected" fill-opacity="1"/></g></svg>